<svg width="640" height="440" viewBox="0 0 640 440" fill="none" xmlns="http://www.w3.org/2000/svg">
  <rect width="640" height="440" rx="36" fill="#F7F1E6"/>
  <rect x="44" y="56" width="552" height="328" rx="32" fill="#FFFBF4"/>
  <rect x="76" y="88" width="216" height="264" rx="26" fill="#214B39"/>
  <circle cx="184" cy="164" r="52" fill="#F5E7CA"/>
  <path d="M165 198C202.694 176.816 231.41 143.451 241.279 97.0896C190.855 94.735 150.84 112.004 127.856 149.803C118.328 165.478 112.798 182.862 110.5 201.945C129.873 207.647 148.102 207.264 165 198Z" fill="#5AA36C"/>
  <path d="M113 202C139.8 180.03 162.006 154.185 179.966 124.688C194.904 100.152 206.992 74.1457 216.179 46.375" stroke="#F5E7CA" stroke-width="7" stroke-linecap="round"/>
  <rect x="104" y="244" width="160" height="14" rx="7" fill="#F5E7CA" fill-opacity="0.24"/>
  <rect x="104" y="272" width="126" height="14" rx="7" fill="#F5E7CA" fill-opacity="0.18"/>
  <rect x="104" y="300" width="146" height="14" rx="7" fill="#F5E7CA" fill-opacity="0.14"/>
  <rect x="326" y="96" width="238" height="110" rx="24" fill="#F1E7D3"/>
  <rect x="350" y="120" width="110" height="12" rx="6" fill="#214B39" fill-opacity="0.18"/>
  <rect x="350" y="145" width="164" height="10" rx="5" fill="#214B39" fill-opacity="0.12"/>
  <rect x="350" y="166" width="132" height="10" rx="5" fill="#214B39" fill-opacity="0.12"/>
  <circle cx="518" cy="151" r="22" fill="#2D6A4F"/>
  <path d="M509 151L516 158L529 145" stroke="#FFF9F1" stroke-width="5" stroke-linecap="round" stroke-linejoin="round"/>
  <rect x="326" y="226" width="114" height="126" rx="24" fill="#E4EAD9"/>
  <rect x="450" y="226" width="114" height="126" rx="24" fill="#F7E1BF"/>
  <path d="M364 322C390.51 307.101 410.701 283.64 417.638 251.019C382.218 249.365 354.123 261.489 337.982 288.041C331.29 299.047 327.407 311.248 325.794 324.644C339.389 328.647 352.189 328.378 364 322Z" fill="#5AA36C"/>
  <path d="M334 325C352.806 309.583 368.392 291.45 381.001 270.753C391.488 253.526 399.975 235.262 406.425 215.767" stroke="#214B39" stroke-width="5" stroke-linecap="round"/>
  <rect x="474" y="252" width="66" height="12" rx="6" fill="#214B39" fill-opacity="0.18"/>
  <rect x="474" y="276" width="46" height="44" rx="12" fill="#2D6A4F"/>
  <rect x="526" y="276" width="14" height="44" rx="7" fill="#C78532"/>
</svg>
